<svg width="205" height="182" viewBox="0 0 205 182" fill="none" xmlns="http://www.w3.org/2000/svg">
<g id="journal empty illo">
<g id="Group 3085">
<g id="paper">
<path id="Rectangle 14" d="M27.4916 26.2947C27.2817 25.0403 28.0778 23.8679 29.2697 23.676L128.542 7.6961C129.734 7.50424 130.871 8.36561 131.081 9.62002L150.085 123.186C150.295 124.44 149.499 125.612 148.307 125.804L49.0345 141.784C47.8426 141.976 46.7062 141.115 46.4963 139.86L27.4916 26.2947Z" fill="#FFAB00"/>
<g id="Group 3086">
<path id="Rectangle 15" d="M20.0861 48.5497C19.7593 47.3204 20.439 46.0686 21.6044 45.7537L70.1336 32.6417L95.4533 25.8007L107.189 22.6297C107.778 22.4706 108.409 22.5784 108.93 22.9269L123.889 32.9393C124.358 33.2532 124.701 33.7383 124.85 34.2978L128.465 47.8955L136.157 76.8314L150.949 132.477C151.276 133.707 150.596 134.958 149.431 135.273L52.3721 161.497C51.2068 161.812 49.9972 161.071 49.6705 159.842L20.0861 48.5497Z" fill="#FFDF99"/>
<path id="Rectangle 16" d="M111.22 34.6464C111.566 35.9505 112.903 36.7223 114.206 36.3703L124.507 33.5871L108.001 22.5396L111.22 34.6464Z" fill="#FFF9EB"/>
</g>
<path id="Line 5 (Stroke)" fill-rule="evenodd" clip-rule="evenodd" d="M57.7494 75.3315C57.607 74.8534 57.8059 74.3809 58.1936 74.2762L103.918 61.922C104.306 61.8172 104.736 62.1199 104.878 62.598C105.02 63.076 104.822 63.5485 104.434 63.6533L58.7094 76.0075C58.3216 76.1122 57.8919 75.8096 57.7494 75.3315Z" fill="#FFBB33"/>
<path id="Line 6 (Stroke)" fill-rule="evenodd" clip-rule="evenodd" d="M64.4396 96.9404C64.2972 96.4623 64.4861 95.9925 64.8616 95.8911L109.139 83.9278C109.515 83.8263 109.935 84.1316 110.077 84.6097C110.219 85.0878 110.031 85.5576 109.655 85.6591L65.3774 97.6224C65.0019 97.7238 64.582 97.4185 64.4396 96.9404Z" fill="#FFBB33"/>
<path id="Line 9 (Stroke)" fill-rule="evenodd" clip-rule="evenodd" d="M71.1852 117.689C71.0428 117.21 71.0841 116.781 71.2774 116.728L94.0743 110.569C94.2676 110.517 94.5398 110.862 94.6822 111.34C94.8246 111.818 94.7834 112.248 94.5901 112.3L71.7931 118.46C71.5998 118.512 71.3276 118.167 71.1852 117.689Z" fill="#FFBB33"/>
</g>
<g id="phone 3">
<path id="Vector" d="M148.885 170.744L122.658 148.52C120.393 146.607 120.115 143.22 122.034 140.974L162.861 92.0584C161.666 91.0407 167.103 89.474 170.363 92.2452L196.59 114.47C198.855 116.383 199.133 119.769 197.214 122.015L156.443 170.127C153.947 172.983 147.315 173.532 148.885 170.744Z" fill="#FECFD8"/>
<path id="Vector_2" d="M146.666 170.932L120.439 148.708C118.174 146.795 117.896 143.408 119.816 141.162L160.586 93.0505C162.499 90.7859 165.886 90.5078 168.132 92.427L194.359 114.652C196.624 116.565 196.902 119.951 194.982 122.197L154.212 170.309C152.318 172.567 148.931 172.845 146.666 170.932Z" fill="white"/>
<path id="Vector_3" d="M154.629 161.211L129.367 139.813C128.639 139.194 128.545 138.1 129.164 137.372L163.459 96.8945C164.078 96.1665 165.172 96.072 165.9 96.6913L191.162 118.088C191.89 118.708 191.984 119.802 191.365 120.529L157.07 161.007C156.445 161.748 155.357 161.83 154.629 161.211Z" fill="#8888F2"/>
<path id="Vector_4" d="M136.034 158.436C138.063 159.432 140.516 158.595 141.512 156.566C142.508 154.537 141.671 152.085 139.642 151.088C137.613 150.092 135.16 150.929 134.164 152.958C133.168 154.988 134.005 157.44 136.034 158.436Z" fill="white"/>
<path id="Vector (Stroke)" fill-rule="evenodd" clip-rule="evenodd" d="M139.399 151.581C137.642 150.718 135.519 151.443 134.656 153.2C133.794 154.957 134.519 157.081 136.275 157.943C138.032 158.806 140.156 158.081 141.018 156.324C141.881 154.567 141.156 152.444 139.399 151.581ZM133.671 152.716C134.801 150.415 137.582 149.466 139.883 150.596C142.184 151.725 143.134 154.507 142.004 156.808C140.874 159.109 138.093 160.058 135.792 158.929C133.491 157.799 132.541 155.018 133.671 152.716Z" fill="#DBDBDB"/>
<g id="Group 3075">
<path id="Vector_5" d="M155.619 135.243C152.797 132.865 152.444 128.66 154.823 125.838L161.283 118.194C163.661 115.372 167.867 115.018 170.689 117.397C173.511 119.775 173.864 123.979 171.485 126.802L165.026 134.446C162.647 137.268 158.442 137.621 155.619 135.243Z" fill="#FFCC66"/>
<path id="Vector (Stroke)_2" fill-rule="evenodd" clip-rule="evenodd" d="M155.591 121.263C155 120.65 154.235 121.263 154.235 121.263L154.232 121.266L154.225 121.273L154.202 121.296C154.182 121.316 154.155 121.343 154.119 121.379C154.049 121.45 153.95 121.554 153.828 121.687C153.584 121.952 153.247 122.336 152.871 122.818C152.121 123.777 151.196 125.144 150.532 126.749C149.868 128.353 149.447 130.239 149.767 132.208C150.058 133.99 150.944 135.77 152.678 137.418C152.549 137.467 152.43 137.549 152.334 137.663L149.558 140.941L146.866 138.681C146.505 138.378 145.968 138.425 145.666 138.785C145.363 139.146 145.41 139.683 145.77 139.985L149.022 142.716C149.047 142.744 149.075 142.77 149.105 142.795C149.136 142.822 149.169 142.846 149.202 142.867L152.433 145.579C152.793 145.882 153.33 145.835 153.633 145.475C153.935 145.114 153.888 144.577 153.528 144.275L150.863 142.037L153.634 138.763C153.729 138.651 153.79 138.521 153.818 138.387C155.789 139.883 157.747 140.468 159.599 140.435C161.589 140.399 163.372 139.651 164.836 138.715C166.301 137.779 167.488 136.629 168.303 135.723C168.713 135.269 169.033 134.871 169.253 134.584C169.363 134.441 169.447 134.325 169.506 134.243C169.535 134.203 169.558 134.171 169.573 134.148L169.592 134.121L169.597 134.113L169.599 134.111C169.599 134.111 169.6 134.109 168.917 133.647L169.6 134.109C169.864 133.719 169.761 133.19 169.372 132.926C168.982 132.663 168.453 132.765 168.189 133.155L168.187 133.158L168.175 133.175C168.164 133.192 168.146 133.217 168.121 133.251C168.073 133.319 167.999 133.42 167.901 133.548C167.704 133.805 167.412 134.167 167.038 134.584C166.284 135.42 165.212 136.453 163.919 137.28C162.624 138.107 161.147 138.703 159.569 138.731C158.01 138.76 156.266 138.237 154.406 136.677L154.405 136.676C152.529 135.108 151.7 133.476 151.449 131.934C151.195 130.373 151.52 128.817 152.106 127.4C152.692 125.985 153.521 124.752 154.213 123.867C154.557 123.426 154.863 123.077 155.082 122.84C155.191 122.721 155.277 122.631 155.336 122.572C155.365 122.542 155.387 122.52 155.401 122.506L155.416 122.491L155.419 122.488C155.419 122.488 156.182 121.875 155.591 121.263Z" fill="#FFCC66"/>
</g>
<path id="Vector_6" d="M182.913 123.537C184.48 124.307 186.374 123.66 187.144 122.093C187.913 120.526 187.267 118.632 185.7 117.862C184.132 117.093 182.238 117.74 181.469 119.307C180.7 120.874 181.346 122.768 182.913 123.537Z" fill="#FF8DA6"/>
<path id="Vector_7" d="M196.92 116.063C196.494 116.178 196.157 116.551 196.098 116.984C196.04 117.418 196.203 117.837 196.268 118.269C196.308 118.597 196.316 118.924 196.275 119.259C196.258 119.42 196.222 119.587 196.192 119.742C196.15 119.89 196.108 120.039 196.14 120.193C196.178 120.366 196.315 120.495 196.477 120.574C196.899 120.781 197.442 120.679 197.805 120.379C198.598 119.736 198.559 118.593 198.435 117.685C198.428 117.604 198.409 117.518 198.402 117.438C198.305 116.882 198.115 116.234 197.502 116.071C197.297 116.017 197.099 116.013 196.92 116.063Z" fill="#FFAEC0"/>
</g>
<path id="Vector 365" d="M50.1537 127.429L47.4429 108.325L40.4724 126.526L50.1537 127.429Z" fill="#FFCE66"/>
<path id="Vector 366" d="M74.0341 155.699L76.4867 132.722L67.3863 157.312L74.0341 155.699Z" fill="#FFCE66"/>
<g id="polaroids">
<g id="p1">
<path id="Vector_8" d="M41.7916 156.526L4.60192 153.465C3.54729 153.378 2.74162 152.439 2.82943 151.372L6.56593 105.976C6.65282 104.921 7.59099 104.114 8.65673 104.202L45.8464 107.263C46.9011 107.35 47.7067 108.289 47.6189 109.355L43.8824 154.751C43.7511 155.803 42.8462 156.613 41.7916 156.526Z" fill="white"/>
<path id="Vector_9" d="M43.8138 110.885L10.2904 108.126L7.50115 142.014L41.0356 144.774L43.8248 110.886L43.8138 110.885Z" fill="#60E6F9"/>
<path id="Vector_10" d="M12.2373 142.404C12.2373 142.404 12.5252 131.478 21.6016 132.225C30.667 132.971 31.0078 124.239 31.0078 124.239C31.0078 124.239 32.3362 114.988 43.1893 118.461L41.0208 144.807L12.2345 142.437L12.2373 142.404Z" fill="#0AAEC2"/>
<mask id="mask0_11176_162" style="mask-type:alpha" maskUnits="userSpaceOnUse" x="7" y="108" width="37" height="37">
<g id="mask0 1">
<path id="Vector_11" d="M43.8137 110.887L10.2924 108.126L7.5011 142.012L41.0334 144.774L43.8248 110.888L43.8137 110.887Z" fill="#1AD1E6"/>
</g>
</mask>
<g mask="url(#mask0_11176_162)">
<g id="Group">
<path id="Vector_12" d="M20.2769 124.383C22.5401 124.569 24.5332 122.885 24.7201 120.616C24.907 118.347 23.2224 116.36 20.9532 116.173C18.6901 115.986 16.697 117.67 16.5101 119.94C16.3292 122.209 18.0138 124.196 20.2769 124.383Z" fill="#CAF8FF"/>
</g>
</g>
</g>
<g id="p2">
<path id="Vector_13" d="M61.9809 178.963L25.9842 169.115C24.9634 168.836 24.3439 167.765 24.6263 166.733L36.6491 122.793C36.9285 121.772 37.9989 121.152 39.0305 121.434L75.0272 131.282C76.048 131.561 76.6674 132.632 76.3851 133.664L64.3623 177.604C64.0692 178.633 63.0017 179.243 61.9809 178.963Z" fill="white"/>
<path id="Vector_14" d="M72.3538 134.502L39.8958 125.622L30.9216 158.422L63.3796 167.302L72.3538 134.502Z" fill="#FECFD8"/>
<g id="Group 205">
<g id="Group_2">
<path id="Vector (Stroke)_3" fill-rule="evenodd" clip-rule="evenodd" d="M53.0582 139.843C53.4019 139.936 53.6616 140.212 53.7325 140.566L54.3237 143.514C54.4319 144.053 54.9565 144.403 55.4955 144.294C56.0346 144.186 56.3839 143.661 56.2757 143.122L55.6845 140.174C55.4651 139.08 54.651 138.212 53.5809 137.921L47.4832 136.261C46.9527 136.117 46.4057 136.43 46.2613 136.961C46.117 137.491 46.43 138.039 46.9605 138.183L53.0582 139.843Z" fill="#FE6784"/>
<path id="Rectangle 152" d="M58.4923 145.871C58.8454 144.573 58.0799 143.235 56.7827 142.882L46.9773 140.214C45.6801 139.861 44.3422 140.626 43.9892 141.924L42.0254 149.14C41.6723 150.438 42.4377 151.775 43.735 152.128L53.5404 154.797C54.8376 155.15 56.1754 154.384 56.5285 153.087L58.4923 145.871Z" fill="#FE6784"/>
<path id="Vector_15" d="M61.3625 146.968L58.0415 147.641L57.0626 151.238L59.5759 153.532C59.8443 153.772 60.2708 153.646 60.3639 153.304L61.9264 147.563C62.0194 147.222 61.7156 146.897 61.3625 146.968Z" fill="#FE6784"/>
</g>
</g>
</g>
</g>
<path id="Vector 347" opacity="0.5" d="M110.512 111.044L91.773 113.679L98.5871 108.147L145.515 95.5018L146.568 102.483L110.512 111.044Z" fill="#FFBB33"/>
<g id="pencil">
<path id="Vector_16" d="M153.908 83.6687C154.251 84.3476 153.96 85.1458 153.231 85.535L99.498 111.881L95.9964 105.393L149.594 79.483C150.433 79.0514 151.514 79.3109 151.959 80.0612C152.557 81.0682 153.042 81.9506 153.908 83.6687Z" fill="#FF8DA6"/>
<path id="Vector_17" d="M153.859 83.6459C154.223 84.335 153.939 85.16 153.193 85.5582L99.4974 111.881L98.3543 109.852C98.3543 109.852 133.757 92.7268 152.979 82.7794C153.301 82.6128 153.232 82.4619 153.859 83.6459Z" fill="#FE6784"/>
<path id="Vector_18" d="M88.9623 110.97C87.5193 112.114 88.7637 114.173 90.6543 113.769L99.4975 111.881L95.9961 105.392L88.9623 110.97Z" fill="#FFEDC1"/>
<mask id="mask1_11176_162" style="mask-type:alpha" maskUnits="userSpaceOnUse" x="85" y="105" width="15" height="10">
<path id="Vector_19" d="M85.9865 113.329C85.3306 113.849 85.8963 114.785 86.7556 114.601L98.4769 112.099C99.0032 111.987 99.2814 111.481 99.0515 111.055L96.4849 106.299C96.2415 105.848 95.5665 105.733 95.1412 106.07L85.9865 113.329Z" fill="#FFEDC1"/>
</mask>
<g mask="url(#mask1_11176_162)">
<path id="Vector_20" d="M85.9862 113.329C85.3303 113.849 85.896 114.785 86.7553 114.602L91.5018 113.588L89.7511 110.344L85.9862 113.329Z" fill="#484848"/>
</g>
</g>
</g>
</g>
</svg>
